<?xml version="1.0" encoding="UTF-8"?>
<svg xmlns="http://www.w3.org/2000/svg" version="1.1" viewBox="0 0 150 53.65">
  <defs>
    <style>
      .cls-1 {
        fill: #2596ec;
      }

      .cls-2 {
        fill: #2797ec;
      }
    </style>
  </defs>
  <!-- Generator: Adobe Illustrator 28.7.1, SVG Export Plug-In . SVG Version: 1.2.0 Build 142)  -->
  <g>
    <g id="Layer_1">
      <g>
        <path class="cls-1" d="M18.35,45.27c-.56-.41-1.26-.32-1.89-.46-6.63-1.49-11.1-6.36-12.04-13.09-.2-1.42-.21-2.83-.19-4.26.01-.79.29-1.07,1.14-1.06,11.09.03,22.19.02,33.28.02,1.31,0,2.59-.11,3.83-.61.52-.21.62-.35.37-.93-1.35-3.09-.75-5.98,1.06-8.71.23-.35.43-.36.76-.13,1.78,1.26,3.23,2.79,3.75,4.96.16.67.4.78,1.01.72,1.89-.18,3.74-.07,5.42.99.49.31.59.56.36,1.12-1.26,3.07-3.65,4.42-6.86,4.49-.65.01-.94.22-1.19.8-4.06,9.19-11.15,14.39-21.1,15.82-.54.08-1.14-.04-1.62.33h-6.1Z"/>
        <path class="cls-2" d="M73.07,25.77c0-2.06,0-4.1,0-6.14,0-.7.18-1.26.89-1.51.96-.33,1.84.25,1.84,1.29.01,4.39.08,8.79-.05,13.18-.09,3.18-3.1,6.08-6.38,6.42-3.75.39-7.04-1.72-8.08-5.19-.87-2.89.14-6.02,2.54-7.9,2.36-1.85,5.73-2.08,8.33-.58.26.15.48.42.91.43ZM63.75,31.76c.02,2.51,2.12,4.58,4.64,4.57,2.55,0,4.7-2.14,4.67-4.66-.03-2.48-2.16-4.57-4.67-4.58-2.54-.02-4.67,2.12-4.65,4.67Z"/>
        <path class="cls-2" d="M130.94,33.11c-1.53,0-3.05,0-4.58,0-.99,0-1.04.11-.53.99,1.3,2.23,4.39,2.95,6.56,1.51,1.22-.8,1.97-.82,2.47-.05.53.81.19,1.59-1.03,2.36-2.79,1.77-6.28,1.52-8.85-.64-2.38-2-3.21-5.46-2-8.37,1.27-3.06,4.37-4.87,7.72-4.53,3.08.32,5.77,2.74,6.41,5.79.08.37.1.75.12,1.13.09,1.22-.4,1.77-1.63,1.78-1.56.02-3.11,0-4.67,0ZM129.76,30.34c1.24,0,2.47-.01,3.71,0,.6.01.86-.12.51-.75-.92-1.63-2.33-2.51-4.18-2.5-1.8.02-3.22.84-4.11,2.46-.29.53-.25.81.45.79,1.2-.03,2.41,0,3.61,0Z"/>
        <path class="cls-2" d="M110.86,29.67c2.45-1.58,4.71-3.04,6.96-4.5.27-.17.53-.35.8-.51.83-.49,1.65-.34,2.09.36.44.71.28,1.4-.54,1.94-1.43.95-2.88,1.85-4.31,2.79-1.12.73-1.11.52-.23,1.52,1.55,1.76,3.13,3.49,4.68,5.25.79.89.82,1.64.15,2.24-.66.59-1.46.44-2.22-.41-1.71-1.91-3.42-3.83-5.15-5.72-.22-.24-.39-.84-.85-.51-.52.37-1.39.44-1.38,1.37.01,1.3,0,2.59,0,3.89,0,1.08-.49,1.7-1.34,1.72-.85.02-1.45-.58-1.45-1.64-.02-5.97-.02-11.95,0-17.92,0-.89.63-1.5,1.39-1.5.82,0,1.39.61,1.39,1.59.01,2.94,0,5.88,0,8.82,0,.34,0,.68,0,1.24Z"/>
        <path class="cls-2" d="M92.2,31.78c-.06,4.18-3.31,7.31-7.53,7.24-4.02-.06-7.25-3.42-7.18-7.44.07-3.99,3.43-7.22,7.47-7.18,4.04.04,7.29,3.36,7.23,7.38ZM84.66,36.34c2.55.07,4.71-1.96,4.81-4.5.09-2.49-2.02-4.68-4.57-4.74-2.49-.06-4.67,1.98-4.74,4.46-.08,2.56,1.95,4.71,4.5,4.78Z"/>
        <path class="cls-2" d="M101.74,39.07c-3.82.3-7.29-2.49-7.87-6.07-.62-3.85,1.72-7.5,5.44-8.4,2.32-.57,4.47-.15,6.39,1.3.82.62,1.02,1.46.52,2.12-.51.68-1.32.73-2.18.09-1.58-1.17-3.27-1.36-5-.46-1.7.88-2.54,2.35-2.48,4.26.06,1.71.89,3.02,2.39,3.84,1.54.84,3.1.82,4.62-.08.25-.14.46-.35.7-.48.69-.39,1.35-.37,1.89.25.5.58.41,1.38-.25,1.94-1.27,1.08-2.77,1.64-4.18,1.69Z"/>
        <path class="cls-1" d="M141.64,25.9c1.99-1.46,4.18-1.84,6.53-1.32.25.05.49.13.72.23.93.41,1.29,1.1,1.01,1.87-.28.76-1.01,1.03-1.98.74-3.48-1.06-6.34,1.06-6.35,4.71,0,1.77,0,3.54,0,5.31,0,1.04-.47,1.59-1.33,1.62-.87.03-1.42-.49-1.43-1.52-.03-3.86-.03-7.72,0-11.58,0-1.01.49-1.54,1.29-1.57.99-.04,1.39.58,1.55,1.52Z"/>
        <path class="cls-2" d="M23.12,19.42c-.67-.07-1.73.35-2.24-.15-.56-.54-.17-1.62-.18-2.45-.03-2.41,0-2.43,2.4-2.4.94.01,2.16-.41,2.75.19.54.54.14,1.74.15,2.66.02,2.17,0,2.17-2.15,2.17h-.72Z"/>
        <path class="cls-2" d="M29.86,14.41c.66.07,1.73-.36,2.24.15.54.54.17,1.62.17,2.46,0,.78.36,1.77-.17,2.27-.48.45-1.45.11-2.21.13-.76.02-1.53-.02-2.29.01-.51.02-.66-.18-.65-.66.03-1.23.03-2.47,0-3.7-.01-.49.16-.68.66-.67.7.02,1.4,0,2.25,0Z"/>
        <path class="cls-1" d="M29.6,8.5c.85,0,1.98-.33,2.48.09.58.49.17,1.65.18,2.52.03,2.29,0,2.29-2.29,2.29-.79,0-1.58-.02-2.38,0-.5.02-.66-.17-.65-.66.03-1.23.03-2.46,0-3.69-.01-.51.18-.66.66-.64.66.03,1.33,0,2,0v.06Z"/>
        <path class="cls-2" d="M23.55,20.4c.69.09,1.81-.37,2.3.19.41.47.16,1.56.14,2.37-.02.78.35,1.78-.16,2.27-.51.48-1.51.12-2.29.14-.7.02-1.39-.02-2.09.01-.56.03-.8-.13-.78-.73.04-1.16.04-2.33,0-3.49-.02-.56.12-.81.73-.76.66.05,1.33.01,2.14.01Z"/>
        <path class="cls-1" d="M29.6,25.36c-.7,0-1.39-.01-2.09,0-.4.01-.56-.14-.56-.55.02-1.29.02-2.59,0-3.88,0-.41.15-.55.55-.55,1.43.02,2.85.01,4.28,0,.37,0,.5.13.5.49-.01,1.32-.02,2.65,0,3.97,0,.45-.22.51-.59.51-.7-.01-1.39,0-2.09,0Z"/>
        <path class="cls-1" d="M35.74,25.37c-.7-.07-1.79.36-2.33-.16-.54-.52-.16-1.61-.17-2.45-.02-2.35,0-2.37,2.32-2.35.97.01,2.23-.42,2.83.19.56.56.14,1.8.15,2.74.02,2.03,0,2.03-2,2.03h-.81Z"/>
        <path class="cls-2" d="M16.88,19.42c-.69-.1-1.76.38-2.3-.2-.5-.53-.15-1.57-.15-2.38-.02-2.39,0-2.4,2.42-2.38.91,0,2.08-.38,2.67.15.61.54.19,1.72.2,2.62.03,2.2,0,2.2-2.21,2.2h-.62Z"/>
        <path class="cls-1" d="M10.65,25.37c-.69-.1-1.81.38-2.3-.2-.41-.49-.15-1.57-.15-2.38,0-.75-.25-1.75.14-2.2.45-.53,1.49-.14,2.27-.18.73-.03,1.46.02,2.19-.02.49-.02.68.13.66.64-.03,1.23-.03,2.46,0,3.7.01.5-.17.67-.66.65-.67-.03-1.33,0-2.15,0Z"/>
        <path class="cls-1" d="M17.31,20.4c.67.07,1.72-.35,2.24.15.52.51.16,1.56.16,2.37,0,.78.35,1.78-.15,2.28-.5.5-1.51.16-2.29.15-.91-.01-2.08.41-2.65-.19-.53-.54-.14-1.69-.15-2.57-.02-2.2,0-2.2,2.22-2.2h.62Z"/>
      </g>
    </g>
  </g>
</svg>