<?xml version="1.0" encoding="UTF-8"?>
<svg xmlns="http://www.w3.org/2000/svg" version="1.1" viewBox="0 0 150 53.65">
  <defs>
    <style>
      .cls-1 {
        fill: #fff;
      }
    </style>
  </defs>
  <!-- Generator: Adobe Illustrator 28.7.1, SVG Export Plug-In . SVG Version: 1.2.0 Build 142)  -->
  <g>
    <g id="Layer_1">
      <g>
        <path class="cls-1" d="M118.87,36.11c-.36,1.02-1.06,1.45-2.16,1.37-.52-.04-1-.15-1.4-.51-.3-.27-.44-.61-.47-1.02h.79c.23.64.83.93,1.6.77.17-.04.35-.11.5-.21.43-.3.41-.88-.05-1.12-.26-.14-.57-.21-.85-.29-.33-.1-.67-.17-.99-.29-1.14-.44-1.01-1.82-.38-2.37.77-.66,2.26-.62,2.95.13.23.25.36.55.38.9h-.77c-.3-.73-1.12-1.01-1.82-.62-.25.14-.39.36-.38.66,0,.29.19.46.43.54.34.12.69.2,1.03.3.14.04.27.07.41.11.58.17,1.03.47,1.19,1.1v.55Z"/>
        <path class="cls-1" d="M69,14.72v1.29h-14.81v9.77h13.92v1.31h-13.93v10.71h14.99v1.29h-16.5v-.26c0-7.95,0-15.9,0-23.85,0-.21.05-.27.27-.27,5.27,0,10.55,0,15.82,0h.25Z"/>
        <path class="cls-1" d="M70.49,14.72c.58,0,1.11,0,1.63,0,.07,0,.15.09.2.15,1.03,1.44,2.06,2.87,3.1,4.31,1.45,2.03,2.91,4.05,4.36,6.08.04.05.08.1.16.2,5.72-8.14,11.83-15.93,18.04-23.66-.21.31-.42.62-.64.93-5.43,7.87-10.86,15.74-16.29,23.61-.12.18-.11.28,0,.45,2.92,4.03,5.83,8.06,8.74,12.1.04.06.08.11.13.2-.09,0-.15.01-.21.01-.43,0-.86-.01-1.29,0-.22,0-.34-.07-.46-.24-1.58-2.2-3.17-4.4-4.76-6.6-1.04-1.44-2.08-2.88-3.12-4.32-.05-.07-.11-.14-.17-.23-.05.06-.09.1-.13.15-2.65,3.66-5.31,7.31-7.95,10.98-.14.2-.29.28-.53.27-.46-.02-.92,0-1.41,0,.04-.07.07-.13.1-.17,2.93-4.02,5.86-8.05,8.78-12.07.27-.37.26-.22,0-.58-2.71-3.79-5.43-7.57-8.15-11.35-.04-.06-.08-.11-.14-.21Z"/>
        <path class="cls-1" d="M59.31,52.52c-.31-.41-.62-.82-.92-1.23-2.99-3.99-6-7.96-8.96-11.96-1.15-1.56-2.21-3.18-3.31-4.78-4.05-5.91-8.11-11.82-12.16-17.73-.04-.06-.08-.11-.17-.16-.02,7.48-.05,14.95-.07,22.44h-1.49V14.73c.07,0,.15,0,.22,0,.47,0,.93,0,1.4,0,.17,0,.28.05.38.2,1.69,2.53,3.38,5.06,5.07,7.59,3.01,4.5,6.03,9.01,9.04,13.51,2.55,3.81,5.09,7.62,7.64,11.42,1.07,1.59,2.13,3.19,3.2,4.78.06.09.11.17.17.26-.01.01-.03.02-.04.04Z"/>
        <path class="cls-1" d="M100.64,16.02v23.08h-1.49v-23.08h-8.53v-1.29c.08,0,.16,0,.23,0,6.04,0,12.08,0,18.13,0,.21,0,.27.06.25.26-.02.26-.02.52,0,.78.01.2-.04.26-.25.26-.97-.01-1.93,0-2.9,0-1.72,0-3.44,0-5.16,0-.08,0-.17,0-.27,0Z"/>
        <path class="cls-1" d="M112.95,32.1h.79c0,.05.02.1.02.14,0,1.23.01,2.47,0,3.7,0,.65-.28,1.16-.91,1.42-.65.26-1.47.11-1.91-.34-.27-.28-.38-.62-.39-1.02h.79c.06.41.28.67.71.7.54.05.88-.25.9-.79.01-.41,0-.82,0-1.23,0-.78,0-1.56,0-2.35,0-.08,0-.15,0-.25Z"/>
        <path class="cls-1" d="M108.54,36.88c0-.31.23-.54.52-.54.3,0,.54.24.54.55,0,.3-.24.53-.54.53-.3,0-.52-.23-.52-.54Z"/>
      </g>
    </g>
  </g>
</svg>