<?xml version="1.0" encoding="UTF-8"?>
<svg xmlns="http://www.w3.org/2000/svg" version="1.1" viewBox="0 0 150 53.65">
  <defs>
    <style>
      .cls-1 {
        fill: #090;
      }
    </style>
  </defs>
  <!-- Generator: Adobe Illustrator 28.7.1, SVG Export Plug-In . SVG Version: 1.2.0 Build 142)  -->
  <g>
    <g id="Layer_1">
      <g>
        <path class="cls-1" d="M67.36,23.24c-3.54.69-6.38.75-7.55-3.29-.22-.76-1.65-1.25-2.6-1.69-.47-.22-1.13-.04-1.7-.05-7.45-.04-9.34,1.27-11.79,8.34-.23.65-.12,1.54.13,2.22.34.96.95,1.82,1.46,2.71,2.78,4.96,6.52,6.64,12.02,4.94,1.23-.38,2.05-2.07,3.07-3.16-.13-.33-.27-.66-.4-.99-1.97,0-3.95.05-5.92-.01-2.06-.07-4.45.1-4.38-2.97.07-2.75,2.14-2.8,4.2-2.79,4.93.03,9.86.02,14.79.05.2,0,.39.17,1.01.47-2.37,4.77-4.69,9.57-7.19,14.27-.3.57-1.53.9-2.34.91-4.47.09-8.94.14-13.41-.03-1.03-.04-2.44-.77-2.97-1.62-2.3-3.68-4.43-7.48-6.39-11.35-.46-.9-.36-2.44.1-3.38,1.89-3.79,3.89-7.53,6.14-11.11.63-1,2.19-1.92,3.37-1.98,4.46-.23,8.94-.18,13.4-.03,1.05.04,2.59.64,3.01,1.45,1.52,2.91,2.65,6.01,3.96,9.1Z"/>
        <path class="cls-1" d="M27.03,32.26c0-5.85.04-10.74-.02-15.63-.03-2.19.38-4.02,3.04-3.95,2.42.06,2.91,1.83,2.91,3.84,0,7.22.09,14.44-.07,21.66-.03,1.29-.81,3.37-1.7,3.65-1.17.36-3.16-.29-4.13-1.22-5.08-4.79-9.95-9.82-14.91-14.75-.86-.85-1.78-1.64-3.3-3.04,0,5.29.03,9.81-.02,14.34-.01,1.12.07,2.47-.5,3.3-.59.85-1.98,1.72-2.9,1.61-.91-.11-2.37-1.44-2.38-2.25-.18-8.25-.15-16.5-.03-24.75.01-.77,1.09-2.12,1.74-2.15,1.21-.06,2.8.28,3.63,1.07,5.3,5.07,10.43,10.31,15.63,15.48.72.72,1.48,1.39,3.01,2.8Z"/>
        <path class="cls-1" d="M106.9,22.85c-1.28,1.56-2.45,3.22-3.85,4.65-4.42,4.51-8.85,9.01-13.45,13.32-.91.86-2.74,1.39-3.9,1.1-.78-.2-1.58-2.1-1.61-3.25-.14-7.46-.08-14.92-.07-22.38,0-1.85.28-3.55,2.67-3.59,2.54-.05,2.94,1.64,2.93,3.69-.03,4.99,0,9.98,0,15.9,1.54-1.41,2.37-2.11,3.14-2.87,5.04-5.02,10-10.12,15.17-15.01.99-.94,2.89-1.62,4.13-1.35.79.17,1.6,2.32,1.63,3.59.15,7.23.07,14.46.08,21.69,0,1.93-.06,3.84-2.69,3.91-2.88.08-2.91-1.98-2.91-4.02,0-4.87,0-9.75,0-14.62-.42-.25-.84-.51-1.26-.76Z"/>
        <path class="cls-1" d="M132.83,23.99c3.7-3.84,6.58-6.79,9.42-9.78,1.53-1.61,3.26-2.39,5.02-.63,1.75,1.75.61,3.34-.81,4.71-3.04,2.93-6.1,5.85-9.54,9.14,3.37,3.25,6.33,6.1,9.27,8.96,1.45,1.41,2.99,2.98,1.06,4.93-1.94,1.96-3.69.8-5.26-.85-2.76-2.91-5.56-5.78-8.71-9.05-2.97,2.95-5.69,5.66-8.43,8.35-.73.72-1.42,1.84-2.28,2.01-1.17.23-3.13.13-3.58-.58-.58-.91-.51-3.04.19-3.8,3.09-3.35,6.52-6.39,10.15-9.86-3.49-3.38-6.54-6.31-9.57-9.26-1.39-1.35-2.66-2.87-.88-4.69,1.78-1.82,3.53-1.01,5.01.6,2.86,3.1,5.7,6.23,8.95,9.78Z"/>
        <path class="cls-1" d="M73.88,26.7h5.73c0,4.32.18,8.65-.14,12.94-.07.92-1.87,2.23-3,2.37-.76.09-2.41-1.54-2.47-2.47-.27-4.2-.12-8.43-.12-12.83Z"/>
        <path class="cls-1" d="M79.67,23.38h-5.8c0-2.64-.26-5.25.12-7.77.16-1.09,1.64-1.98,2.53-2.96,1.05.95,2.8,1.76,3.01,2.87.46,2.4.14,4.95.14,7.85Z"/>
      </g>
    </g>
  </g>
</svg>