<?xml version="1.0" encoding="UTF-8"?>
<svg xmlns="http://www.w3.org/2000/svg" version="1.1" viewBox="0 0 150 53.65">
  <defs>
    <style>
      .cls-1 {
        fill: #2e7d32;
      }

      .cls-2 {
        fill: #fff;
      }

      .cls-3 {
        fill: #4caf50;
      }

      .cls-4 {
        fill: #fefefe;
      }

      .cls-5 {
        fill: #569f46;
      }
    </style>
  </defs>
  <!-- Generator: Adobe Illustrator 28.7.1, SVG Export Plug-In . SVG Version: 1.2.0 Build 142)  -->
  <g>
    <g id="Layer_1">
      <g>
        <path class="cls-5" d="M143.76,26.14c0,3.24-.02,6.47,0,9.71.01,1.6-.64,2.79-2.03,3.59-5.62,3.25-11.23,6.51-16.85,9.75-1.32.76-2.69.78-4.02.02-1.91-1.1-3.79-2.24-5.68-3.37-.19-.12-.49-.21-.44-.48.04-.27.35-.28.56-.35.67-.23,1.33-.48,1.92-.86.41-.27.74-.25,1.16,0,1.25.78,2.53,1.51,3.79,2.29.41.25.74.25,1.16,0,5.55-3.23,11.1-6.45,16.66-9.65.45-.26.6-.57.6-1.07-.01-6.42-.01-12.85,0-19.27,0-.51-.16-.82-.6-1.07-5.53-3.17-11.05-6.36-16.56-9.55-.48-.28-.87-.29-1.36,0-5.53,3.21-11.07,6.4-16.62,9.59-.39.22-.56.49-.56.95.01,6.49.01,12.99,0,19.48,0,.43.15.69.53.9,1.43.81,2.84,1.64,4.26,2.46.41.23.84.4,1.3.52,1.74.42,3.07-.58,3.08-2.36.01-2.65,0-5.3,0-7.95,0-3.73,0-7.46,0-11.18,0-.86.07-.93.92-.93.54,0,1.08,0,1.62,0,.51-.01.73.24.72.73,0,.12,0,.23,0,.35,0,6.26,0,12.52,0,18.78,0,.61-.01,1.22-.13,1.82-.49,2.56-2.18,3.97-4.81,4.06-1.56.05-2.96-.44-4.29-1.16-1.46-.8-2.9-1.64-4.34-2.47-1.31-.76-1.95-1.88-1.94-3.41.02-6.56.02-13.13,0-19.69,0-1.53.63-2.66,1.94-3.42,5.67-3.3,11.35-6.59,17.03-9.87,1.35-.78,2.72-.74,4.08.04,5.57,3.23,11.14,6.48,16.72,9.69,1.49.86,2.2,2.06,2.18,3.79-.04,3.21-.01,6.42-.01,9.64Z"/>
        <path class="cls-2" d="M72.18,20.21c0,4.27-.01,8.53.01,12.8,0,.8-.27,1.29-.98,1.68-2.88,1.56-5.75,3.16-8.6,4.77-.67.38-1.23.38-1.9,0-2.85-1.61-5.72-3.2-8.6-4.76-.71-.38-.98-.86-.97-1.67.04-3.16.04-6.33,0-9.49,0-.75.24-1.21.9-1.57,2.94-1.6,5.87-3.23,8.79-4.86.57-.32,1.09-.32,1.65,0,1.1.63,2.22,1.21,3.31,1.85.51.3.64.24.64-.38-.02-4.69-.01-9.38-.01-14.06,0-.19-.02-.38,0-.56.06-.43.31-.67.73-.44,1.54.84,3.07,1.7,4.6,2.57.45.26.42.75.42,1.2,0,4.31,0,8.63,0,12.94ZM66.42,28.37c0-.66-.03-1.31,0-1.96.03-.53-.14-.86-.63-1.11-1.22-.64-2.42-1.32-3.62-2-.37-.21-.68-.22-1.04,0-1.24.71-2.48,1.4-3.74,2.08-.37.2-.56.45-.55.88.01,1.38,0,2.76,0,4.14,0,.39.14.65.5.84,1.27.69,2.54,1.4,3.8,2.11.37.21.69.19,1.05-.02.64-.38,1.27-.81,1.96-1.08,1.8-.71,2.85-1.79,2.26-3.87Z"/>
        <path class="cls-1" d="M47.31,28.44c0,1.69,0,3.38,0,5.06,0,.46-.17.82-.58,1.05-3.13,1.74-6.26,3.48-9.4,5.22-.19.1-.38.15-.57.14-.22,0-.43-.08-.64-.19-3.09-1.71-6.19-3.43-9.28-5.14-.42-.23-.63-.57-.62-1.08.02-3.31.03-6.61,0-9.92,0-.25.2-.65.42-.99.17-.26.36-.47.46-.53,2.96-1.61,5.91-3.25,8.85-4.9.55-.31,1.05-.33,1.59-.03,3.01,1.67,6.02,3.33,9.03,5,.52.29.74.68.72,1.31-.05,1.66-.02,3.33-.02,4.99,0,0,0,0,0,0Z"/>
        <path class="cls-2" d="M74.09,28.28c0-1.62.02-3.24,0-4.85,0-.66.23-1.09.82-1.41,2.96-1.62,5.91-3.25,8.85-4.9.57-.32,1.08-.36,1.65-.04,2.94,1.64,5.89,3.29,8.85,4.9.61.33.9.76.88,1.45-.03,1.01-.02,2.02,0,3.02,0,.55-.19.93-.68,1.21-1.38.79-2.75,1.6-4.14,2.39-.64.37-.91.22-.92-.51-.01-1.05-.02-2.11,0-3.16.01-.5-.15-.82-.61-1.06-1.22-.64-2.43-1.32-3.63-2-.36-.2-.67-.26-1.05-.04-1.26.72-2.53,1.43-3.81,2.12-.36.2-.49.45-.49.84.01,1.34.03,2.67,0,4.01-.02.55.19.85.66,1.1,2.87,1.54,5.72,3.11,8.57,4.67.31.17.73.28.72.76-.01.48-.43.58-.74.75-1.22.69-2.46,1.35-3.68,2.04-.5.29-.95.29-1.45,0-3.03-1.69-6.06-3.37-9.09-5.04-.51-.28-.72-.69-.72-1.26.01-1.66,0-3.33,0-4.99Z"/>
        <path class="cls-2" d="M24.34,30.22c0,2.27,0,4.55,0,6.82,0,.87-.26,1.02-1.01.59-1.34-.77-2.67-1.56-4.01-2.32-.51-.29-.71-.67-.71-1.25.01-2.55,0-5.11.01-7.66,0-.54-.17-.85-.65-1.11-1.21-.62-2.39-1.29-3.57-1.97-.39-.22-.71-.25-1.11-.03-1.22.7-2.44,1.39-3.69,2.04-.44.23-.57.54-.56,1.01.02,2.51,0,5.02.02,7.52,0,.71-.22,1.18-.86,1.53-1.32.71-2.59,1.5-3.89,2.25-.72.41-.99.26-1-.55,0-4.57,0-9.14,0-13.71,0-.63.24-1.04.8-1.35,2.98-1.63,5.94-3.28,8.91-4.94.57-.32,1.08-.31,1.65.01,2.96,1.66,5.93,3.31,8.91,4.93.57.31.78.74.78,1.36-.01,2.27,0,4.55,0,6.82Z"/>
        <path class="cls-5" d="M127.68,16.66c1.34.03,2.67.14,3.96.51,2.65.77,4.14,2.54,4.45,5.27.07.58-.11.92-.75.89-.16,0-.33-.02-.49,0-1.2.18-2.04-.05-2.33-1.46-.19-.91-.99-1.48-1.89-1.73-1.96-.53-3.94-.55-5.9-.03-.86.22-1.52.71-1.69,1.68-.16.94.12,1.49,1.02,1.81,1.42.51,2.92.65,4.41.86,1.62.23,3.25.43,4.82.93,1.78.57,3.18,1.54,3.44,3.56.3,2.3-.36,4.22-2.37,5.54-1.52.99-3.24,1.31-5.01,1.42-2.34.15-4.65.02-6.83-.91-2.23-.96-3.43-2.67-3.54-5.12-.03-.63.2-.92.85-.89.58.03,1.17.01,1.76,0,.39,0,.62.14.67.55.24,2,1.5,2.91,3.38,3.15,1.92.24,3.83.31,5.72-.18.77-.2,1.44-.56,1.8-1.33.58-1.23.2-2.25-1.07-2.72-1.6-.59-3.29-.71-4.96-.91-1.51-.17-3.02-.37-4.46-.92-1.75-.66-2.89-1.83-3.06-3.74-.18-1.99.46-3.64,2.16-4.81,1.26-.86,2.68-1.2,4.17-1.35.58-.06,1.17-.06,1.75-.09Z"/>
        <path class="cls-5" d="M86.38,28.35c-.08.34.17.77-.16,1-.5.34-1.06.81-1.59.81-.53,0-1.11-.45-1.6-.79-.39-.28-.16-.79-.18-1.19-.01-.31-.16-.71.17-.92.51-.32,1.03-.84,1.6-.79.56.05,1.11.47,1.6.82.33.24.08.71.16,1.06Z"/>
      </g>
      <path class="cls-4" d="M36.1,33.48"/>
      <path class="cls-3" d="M27.12,22.06l9.47,17.52c.1.19.33.25.52.15l9.62-5.28c.19-.1.25-.34.14-.53l-9.92-16.75c-.1-.18-.33-.24-.51-.14l-9.33,5.03"/>
    </g>
  </g>
</svg>