<?xml version="1.0" encoding="UTF-8"?>
<svg xmlns="http://www.w3.org/2000/svg" version="1.1" viewBox="0 0 150 53.65">
  <defs>
    <style>
      .cls-1 {
        fill: #04d9fe;
      }
    </style>
  </defs>
  <!-- Generator: Adobe Illustrator 28.7.1, SVG Export Plug-In . SVG Version: 1.2.0 Build 142)  -->
  <g>
    <g id="Layer_1">
      <g>
        <path class="cls-1" d="M24.64,41.08c-.24.14-.4.36-.6.54-1.36,1.26-2.84,2.33-4.52,3.11-1.18.54-2.43.8-3.73.78-1.29-.02-2.27-.61-2.97-1.68-.42-.64-.68-1.36-.84-2.11-.22-1.03-.28-2.07-.24-3.12.06-1.37.24-2.71.58-4.04.04-.14.07-.28.1-.42.02-.09-.01-.16-.1-.19-.16-.06-.33-.11-.5-.16-2.19-.61-4.18-1.63-5.97-3.05-.72-.57-1.34-1.26-1.77-2.09-.61-1.18-.61-2.37,0-3.55.45-.86,1.11-1.54,1.86-2.13,1.02-.81,2.16-1.43,3.36-1.95.91-.4,1.86-.72,2.82-1,.23-.07.26-.1.2-.34-.17-.71-.3-1.42-.42-2.14-.24-1.45-.32-2.9-.13-4.35.1-.77.25-1.53.55-2.26.1-.23.21-.46.33-.68.7-1.27,1.8-1.87,3.23-1.9.57-.01,1.14.07,1.69.22.95.26,1.85.66,2.71,1.14,1.22.69,2.34,1.51,3.39,2.43.27.24.53.5.79.76.08.08.16.08.25,0,.36-.33.71-.68,1.08-1,1.15-1,2.39-1.87,3.77-2.55.9-.44,1.84-.78,2.84-.9.59-.07,1.17-.05,1.74.1.87.23,1.52.75,2.02,1.48.33.47.56.99.72,1.54.26.85.4,1.73.44,2.62.07,1.83-.14,3.64-.57,5.42-.01.05-.02.09-.03.14-.03.12.03.18.13.22.1.04.21.07.32.11.91.29,1.8.6,2.67.99,1.44.65,2.79,1.43,3.93,2.54.44.43.83.91,1.13,1.46.67,1.23.65,2.45-.03,3.67-.53.96-1.31,1.7-2.17,2.36-1.21.91-2.55,1.59-3.96,2.14-.56.22-1.12.44-1.71.58-.06.01-.12.04-.18.06-.11.04-.14.12-.11.23.01.05.02.09.03.14.21.75.33,1.52.43,2.29.17,1.37.21,2.75.02,4.12-.15,1.04-.43,2.04-1,2.95-.53.85-1.26,1.46-2.22,1.77-.64.21-1.29.17-1.93.07-1.09-.17-2.1-.58-3.07-1.11-1.45-.8-2.76-1.79-3.96-2.93-.12-.12-.23-.26-.4-.33ZM24.55,33.7c.95.02,2.02-.07,3.1-.09.13,0,.25-.02.38-.02.15-.01.28-.06.35-.2.04-.07.08-.13.13-.2.86-1.29,1.64-2.64,2.4-3.99.37-.65.7-1.32,1.05-1.97.11-.21.15-.39.02-.62-.18-.3-.32-.62-.49-.92-.46-.81-.92-1.62-1.39-2.43-.52-.91-1.06-1.8-1.65-2.67-.12-.17-.24-.27-.46-.27-.44-.01-.89-.06-1.33-.07-1.9-.06-3.8-.02-5.7.09-.2.01-.37.06-.47.25-.08.15-.19.29-.29.43-.64.95-1.21,1.93-1.79,2.92-.5.86-.96,1.75-1.42,2.63-.12.24-.12.44,0,.67.35.64.67,1.29,1.02,1.93.79,1.44,1.64,2.86,2.57,4.22.12.18.25.25.46.26,1.12.08,2.25.08,3.5.06ZM12.74,21.72c-.05.01-.13.02-.21.05-1.38.42-2.73.93-3.99,1.64-.69.39-1.35.82-1.94,1.35-.41.37-.78.78-1.03,1.29-.27.55-.27,1.09-.01,1.65.19.41.45.76.75,1.09.58.65,1.27,1.14,2,1.59.85.53,1.75.95,2.68,1.32.54.21,1.1.4,1.67.53.26.06.27.06.36-.21.01-.03.02-.06.03-.09.49-1.59,1.09-3.14,1.76-4.66.09-.19.08-.35,0-.54-.69-1.5-1.29-3.03-1.79-4.6-.03-.11-.08-.21-.11-.31-.02-.07-.07-.1-.17-.1ZM23.25,14.38c-.1-.26-.33-.4-.51-.57-1.36-1.31-2.91-2.33-4.65-3.08-.72-.31-1.46-.51-2.26-.5-.73.01-1.27.33-1.63.97-.33.59-.53,1.22-.63,1.88-.07.5-.11,1.01-.12,1.52,0,.76.01,1.52.11,2.28.1.82.27,1.62.47,2.42.04.19.09.21.26.19.09-.01.19-.03.28-.05,1.64-.39,3.3-.63,4.96-.81.21-.02.35-.1.47-.27.94-1.29,1.96-2.53,3.05-3.7.07-.08.13-.18.19-.26ZM23.24,39.66c-.09-.18-.21-.29-.31-.41-.73-.79-1.43-1.61-2.09-2.46-.32-.42-.64-.82-.95-1.25-.12-.17-.27-.26-.47-.27-.06,0-.13-.01-.19-.02-1.42-.13-2.82-.35-4.22-.65-.25-.05-.5-.1-.75-.14-.14-.02-.19.02-.24.17-.04.12-.06.24-.09.37-.19.8-.34,1.61-.42,2.43-.1,1.15-.13,2.31.04,3.46.1.68.28,1.33.66,1.91.31.48.74.77,1.3.86.33.05.66.05.99,0,.9-.13,1.74-.45,2.55-.86,1.32-.68,2.49-1.56,3.59-2.54.2-.18.42-.34.57-.58ZM35.5,14.82c-.03-.55-.03-1.28-.16-2-.11-.61-.27-1.2-.6-1.74-.38-.61-.92-.93-1.65-.95-.69-.01-1.35.13-1.99.4-1.95.82-3.65,2.01-5.14,3.51-.02.02-.05.04-.07.07-.11.12-.11.18-.02.29.06.07.13.14.19.21.97,1.08,1.9,2.21,2.77,3.38.15.2.31.4.47.6.27.04.53.09.8.12,1.02.11,2.04.24,3.05.44.5.1.99.2,1.49.3.17.03.22,0,.28-.17.01-.03.02-.06.03-.09.35-1.37.56-2.76.56-4.35ZM25.93,39.76s.07.1.12.14c1.26,1.19,2.63,2.23,4.17,3.04.59.31,1.2.56,1.86.71.42.1.84.13,1.27.07.43-.05.78-.24,1.08-.55.35-.36.56-.81.72-1.27.26-.77.38-1.57.4-2.38.04-1.1-.03-2.18-.21-3.26-.1-.56-.23-1.11-.36-1.67-.04-.19-.08-.21-.26-.17-.42.09-.84.18-1.25.26-1.23.23-2.46.43-3.71.55-.17.02-.3.06-.39.22-.04.07-.1.12-.14.19-.92,1.31-1.93,2.55-2.99,3.74-.1.12-.24.21-.28.38ZM43.55,26.92c0-.24-.05-.47-.14-.69-.26-.6-.66-1.08-1.16-1.48-1.36-1.12-2.88-1.95-4.54-2.53-.45-.15-.91-.28-1.36-.42-.11-.03-.19.01-.23.11-.05.12-.08.24-.12.36-.37,1.16-.78,2.31-1.26,3.43-.14.34-.28.67-.44,1-.09.19-.09.36.01.54.02.04.04.09.06.13.59,1.32,1.12,2.65,1.55,4.03.06.2.13.39.19.59.06.18.1.2.27.15.03,0,.06-.02.09-.03.92-.3,1.83-.63,2.7-1.03.97-.45,1.89-.97,2.71-1.65.46-.37.88-.78,1.2-1.28.25-.37.44-.77.44-1.24ZM18.38,20.6c-.13,0-.24,0-.35.02-.78.12-1.56.25-2.34.38-.31.05-.62.12-.93.19-.12.03-.16.09-.13.21.02.08.04.15.07.23.27.76.54,1.52.82,2.27.1.27.21.53.33.79.02.04.05.08.09.09.08.03.1-.05.13-.1.03-.04.04-.08.07-.12.67-1.22,1.36-2.42,2.1-3.61.06-.09.14-.17.13-.35ZM15.92,29.05c-.05.08-.08.11-.09.14-.44,1.05-.82,2.12-1.16,3.2-.02.06-.04.12-.05.18-.01.09.02.15.11.18.06.02.12.03.18.05.99.21,1.98.4,2.98.53.09.01.19.02.28.02.1,0,.15-.06.11-.15-.03-.06-.06-.11-.09-.17-.65-1.03-1.24-2.09-1.82-3.16-.14-.26-.29-.52-.46-.83ZM24.55,35.44s0,0,0,.01c-.71,0-1.42,0-2.13,0-.06,0-.13,0-.19.01-.05.01-.07.06-.04.11.03.05.07.1.11.15.56.74,1.16,1.45,1.78,2.15.11.13.23.26.36.38.06.06.14.07.2,0,.19-.21.38-.42.57-.64.53-.61,1.03-1.24,1.51-1.88.05-.07.15-.14.12-.24-.04-.12-.16-.06-.25-.06-.68,0-1.36,0-2.04,0ZM31.35,33.26c.78-.14,1.65-.3,2.52-.45.14-.03.28-.07.41-.11.07-.02.1-.07.09-.15-.01-.06-.03-.12-.05-.18-.32-1.01-.69-2-1.09-2.99-.01-.03-.03-.06-.05-.08-.04-.03-.08-.04-.12,0-.04.05-.07.11-.1.16-.65,1.14-1.3,2.28-1.95,3.43-.07.12-.23.24-.13.37.08.1.24-.01.46,0ZM22.14,18.37c.07.02.08.03.1.03,1.47,0,2.94.01,4.41.02.04,0,.1-.02.12-.05.05-.06,0-.12-.03-.17-.18-.22-.35-.45-.53-.67-.45-.53-.89-1.07-1.36-1.58-.41-.45-.31-.44-.72.02-.65.71-1.27,1.45-1.86,2.21-.04.05-.06.1-.11.19ZM33.09,24.7c.46-1.09.82-2.13,1.17-3.18.01-.04.03-.09.03-.14,0-.04-.03-.1-.06-.11-.09-.04-.18-.07-.27-.08-1.02-.21-2.05-.41-3.08-.55-.05,0-.13-.04-.16.06.78,1.31,1.55,2.63,2.37,4.01Z"/>
        <path class="cls-1" d="M50.76,26.7c0-4.25,0-8.49,0-12.74,0-.66-.06-.6.57-.6,3.37,0,6.75,0,10.12,0,.88,0,1.74.09,2.59.31,1.74.45,3.21,1.34,4.29,2.8.77,1.04,1.22,2.21,1.41,3.48.08.53.11,1.07.11,1.61-.01.97-.16,1.93-.49,2.84-.72,1.98-2.06,3.38-4.01,4.19-.69.29-1.41.47-2.15.56-.21.03-.24.09-.12.27.24.37.49.74.73,1.11,1.48,2.23,2.95,4.47,4.43,6.7.53.81,1.07,1.61,1.6,2.41.06.09.12.19.17.29.03.06,0,.13-.08.13-.08,0-.16,0-.24,0-1.03,0-2.06-.01-3.09,0-.29,0-.46-.11-.61-.35-.65-1.03-1.31-2.06-1.97-3.08-1.47-2.3-2.93-4.59-4.4-6.89-.03-.05-.07-.11-.1-.16-.07-.12-.18-.17-.32-.16-.22,0-.44,0-.67,0-1.33,0-2.66,0-3.99,0-.48,0-.47,0-.47.47,0,3.2,0,6.4,0,9.6,0,.14,0,.28-.01.43,0,.07-.05.11-.12.12-.06,0-.13.01-.19.01-.89,0-1.77,0-2.66,0-.06,0-.13,0-.19,0-.09-.01-.14-.07-.15-.16,0-.14,0-.28,0-.43,0-4.26,0-8.52,0-12.79ZM54.09,21.44c0,1.52,0,3.04,0,4.56,0,.55-.07.54.54.54,1.92,0,3.83,0,5.75,0,.4,0,.79-.01,1.19-.03.75-.04,1.47-.22,2.15-.55,1.31-.65,2.15-1.69,2.53-3.1.23-.86.25-1.72.08-2.59-.25-1.21-.84-2.21-1.86-2.94-.97-.7-2.08-1-3.26-1.01-2.23-.02-4.47,0-6.7,0-.42,0-.42,0-.42.42,0,1.57,0,3.14,0,4.7Z"/>
        <path class="cls-1" d="M84.02,31.42c-2.41,0-4.82,0-7.22,0-.59,0-.57-.03-.49.54.33,2.26,1.37,4.06,3.36,5.25.87.52,1.83.8,2.84.86,2.17.15,4.14-.42,5.88-1.74.18-.13.35-.28.51-.43.22-.21.23-.28.46.03.37.51.75,1.02,1.12,1.53.11.16.11.19-.03.32-.6.57-1.27,1.05-1.99,1.46-1.58.89-3.28,1.34-5.08,1.36-1.29.01-2.56-.13-3.79-.55-2.26-.78-4.01-2.18-5.19-4.29-.65-1.16-1.03-2.41-1.21-3.72-.12-.84-.15-1.68-.08-2.51.24-2.85,1.33-5.3,3.56-7.16,1.49-1.25,3.22-1.92,5.16-2.08,1.12-.09,2.21,0,3.3.27,2.12.55,3.77,1.75,4.98,3.56.86,1.28,1.36,2.71,1.61,4.23.16.91.2,1.82.19,2.75,0,.06,0,.13-.01.19,0,.07-.05.12-.12.12-.14,0-.28.01-.43.01-2.44,0-4.88,0-7.32,0ZM82.58,29.17c1.92,0,3.83,0,5.75,0,.13,0,.25,0,.38,0,.19,0,.22-.04.21-.23-.06-1.01-.3-1.97-.77-2.87-.86-1.66-2.18-2.73-4.01-3.14-.9-.21-1.82-.22-2.74-.07-1.46.23-2.64.95-3.57,2.08-.95,1.16-1.44,2.52-1.59,4-.02.18.02.23.2.24.13,0,.25,0,.38,0,1.92,0,3.83,0,5.75,0Z"/>
        <path class="cls-1" d="M110.66,32.9c0,2.2,0,4.4,0,6.61,0,.65.06.57-.6.57-.71,0-1.43,0-2.14,0-.24,0-.27-.04-.28-.28,0-.46,0-.92,0-1.38,0-.09,0-.19-.03-.28-.01-.05-.07-.07-.11-.04-.09.06-.18.13-.26.21-1.76,1.64-3.85,2.38-6.25,2.28-.93-.04-1.82-.21-2.68-.58-1.8-.77-3.05-2.06-3.64-3.95-.16-.53-.23-1.08-.25-1.64-.04-1.14.15-2.24.69-3.26.51-.98,1.25-1.75,2.19-2.32,1.34-.81,2.81-1.12,4.37-1.05.67.03,1.32.11,1.97.26,1.42.33,2.66,1.01,3.69,2.04.06.06.12.19.22.15.13-.05.08-.19.08-.29,0-1.01,0-2.03,0-3.04,0-.54-.09-1.07-.31-1.57-.41-.93-1.11-1.57-2.02-1.98-.7-.32-1.44-.47-2.21-.49-.86-.02-1.71.04-2.54.28-1.18.34-2.2.96-3.09,1.8-.16.15-.31.31-.47.47-.09.08-.16.08-.23-.03-.39-.58-.78-1.15-1.17-1.73-.12-.17-.11-.2.05-.36.71-.73,1.51-1.35,2.41-1.83,1.32-.71,2.73-1.07,4.22-1.17.94-.06,1.87-.04,2.79.11,1.17.19,2.27.56,3.25,1.26,1.11.8,1.8,1.89,2.13,3.22.14.57.2,1.15.2,1.74,0,2.09,0,4.18,0,6.27h0ZM107.66,34.15c0-.49,0-.98,0-1.47,0-.24-.07-.43-.22-.6-.47-.55-1.02-.99-1.67-1.32-1.19-.61-2.45-.83-3.77-.77-.56.02-1.1.11-1.63.31-1.59.6-2.57,1.7-2.79,3.41-.17,1.3.21,2.45,1.14,3.38.8.8,1.79,1.18,2.89,1.3,1.33.14,2.62-.07,3.84-.63.76-.35,1.41-.84,1.96-1.47.16-.19.25-.39.24-.64-.02-.49,0-.98,0-1.47Z"/>
        <path class="cls-1" d="M123.13,20.25c1.35.02,2.61.2,3.81.72,1.14.49,2.09,1.23,2.91,2.16.12.13.22.27.33.4.04.05.04.12,0,.17-.03.04-.06.07-.1.1-.56.52-1.12,1.03-1.68,1.55-.12.11-.17.11-.27-.02-.26-.34-.54-.66-.86-.95-1.07-.93-2.31-1.41-3.73-1.43-.75-.01-1.48.06-2.21.27-1.41.41-2.53,1.22-3.36,2.43-.73,1.07-1.12,2.26-1.27,3.54-.14,1.21-.09,2.41.21,3.59.34,1.38.99,2.6,2.08,3.55.9.8,1.96,1.27,3.14,1.46.82.13,1.64.13,2.46-.03,1.17-.22,2.17-.78,2.99-1.64.15-.16.29-.33.44-.5.23-.28.23-.28.51-.02.32.29.63.58.94.87.21.19.42.39.63.58.15.15.16.18.02.36-.59.74-1.27,1.37-2.07,1.87-1.56.99-3.27,1.4-5.12,1.3-.74-.04-1.48-.11-2.21-.3-2.55-.66-4.49-2.12-5.81-4.41-.76-1.32-1.17-2.76-1.34-4.27-.15-1.4-.05-2.79.3-4.15.58-2.26,1.77-4.12,3.68-5.49.87-.63,1.83-1.06,2.86-1.35.91-.25,1.83-.35,2.72-.36Z"/>
        <path class="cls-1" d="M142.07,37.18c.05.08.09.12.1.16.23.57.46,1.15.68,1.72.11.28.1.32-.12.48-.56.43-1.17.75-1.86.91-1.07.25-2.15.2-3.19-.11-1.1-.33-1.86-1.06-2.26-2.14-.23-.63-.34-1.28-.35-1.95,0-.46,0-.92,0-1.38,0-3.64,0-7.29,0-10.93,0-.63.05-.56-.56-.56-.71,0-1.43,0-2.14,0-.11,0-.22,0-.33,0-.11,0-.18-.06-.18-.17,0-.08,0-.16,0-.24,0-.6,0-1.2,0-1.81,0-.43,0-.43.41-.43.68,0,1.36,0,2.04,0,.13,0,.25,0,.38,0q.38,0,.38-.41c0-.1,0-.19,0-.29,0-1.35,0-2.69,0-4.04,0-.13,0-.25,0-.38,0-.09.06-.14.15-.15.08,0,.16,0,.24,0,.74,0,1.49,0,2.23,0,.08,0,.16,0,.24,0,.09,0,.14.06.15.15,0,.13,0,.25,0,.38,0,1.36,0,2.73,0,4.09,0,.13,0,.25,0,.38,0,.22.03.25.24.26.13,0,.25,0,.38,0,.92,0,1.84,0,2.76,0,.13,0,.25,0,.38,0,.11,0,.17.08.17.19,0,.06,0,.13,0,.19,0,.63,0,1.27,0,1.9,0,.08,0,.16-.01.24,0,.07-.06.11-.13.12-.13,0-.25.01-.38.01-.92,0-1.84,0-2.76,0-.1,0-.19,0-.29,0-.36,0-.37,0-.37.37,0,1.24,0,2.47,0,3.71,0,2.58,0,5.17,0,7.75,0,.48.02.95.18,1.41.31.86.92,1.31,1.84,1.29.58-.02,1.13-.16,1.62-.48.11-.07.21-.14.34-.22Z"/>
        <path class="cls-1" d="M28.21,26.92c0,2.01-1.59,3.74-3.77,3.72-2.2-.02-3.7-1.81-3.69-3.75.02-2.06,1.67-3.71,3.72-3.72,2.08,0,3.74,1.66,3.73,3.75Z"/>
      </g>
    </g>
  </g>
</svg>