<?xml version="1.0" encoding="UTF-8"?>
<svg xmlns="http://www.w3.org/2000/svg" version="1.1" viewBox="0 0 150 53.65">
  <defs>
    <style>
      .cls-1 {
        fill: #fff;
      }

      .cls-2 {
        fill: #04d9fe;
      }
    </style>
  </defs>
  <!-- Generator: Adobe Illustrator 28.7.1, SVG Export Plug-In . SVG Version: 1.2.0 Build 142)  -->
  <g>
    <g id="Layer_1">
      <path class="cls-2" d="M25,31.09c.41-.33.65-.58.65-.58-1.54,3.94-3.52,4.43-5.07,5.06-6.9,1.96-9.3-4.1-12.17-4.9s-4.78,1.63-4.78,1.63l-.33.42c.05-.12.11-.25.17-.38,2.67-5.46,9.97-6.5,14.14-2.08.08.08.15.16.22.24,2.93,3.25,5.89,1.59,7.17.58Z"/>
      <path class="cls-2" d="M32.59,22.61c.41-.33.65-.58.65-.58-1.54,3.94-3.52,4.43-5.07,5.06-6.9,1.96-9.3-4.1-12.17-4.9s-4.78,1.63-4.78,1.63l-.33.42c.05-.12.11-.25.17-.38,2.67-5.46,9.97-6.5,14.14-2.08.08.08.15.16.22.24,2.93,3.25,5.89,1.59,7.17.58Z"/>
      <g>
        <path class="cls-1" d="M148.42,31.99c-1.54,2.83-5.97,3.34-7.88.88-.21-.27-.86-.76-.13-1,.57-.19.98-1.45,1.85-.41.64.76,1.41,1.23,2.51.99.65-.14,1.17-.36,1.29-1.02.13-.77-.48-1.03-1.06-1.23-.83-.29-1.69-.51-2.51-.82-1.4-.54-2.17-1.5-2.03-2.66.19-1.61.57-2.31,2.22-2.9,1.67-.59,3.3-.37,4.63.88.26.25,1.19.54.57,1.08-.5.44-1.19,1.19-2.07.34-.7-.67-1.57-.79-2.46-.36-.77.37-.87,1.14-.16,1.6.56.37,1.21.76,1.85.8,1.65.13,2.58,1.14,3.4,2.37v1.45Z"/>
        <path class="cls-1" d="M83.22,30.61c.56-1.95,1.12-3.89,1.69-5.84.17-.6,1.89-1.08,2.35-.67.24.21.06.45,0,.66-.91,2.9-1.83,5.8-2.74,8.7-.28.9-1.03.67-1.69.74-.66.06-.88-.24-1.05-.83-.57-1.96-1.21-3.89-1.93-6.19-.68,2.16-1.29,4.01-1.85,5.87-.21.69-.36,1.2-1.32,1.17-.94-.02-1.4-.22-1.68-1.19-.86-2.98-1.85-5.93-2.8-8.91,2.28-.24,2.29-.24,2.87,1.74.47,1.61.91,3.22,1.45,5.14.65-2.08,1.25-3.89,1.76-5.72.24-.86.5-1.3,1.58-1.31,1.13,0,1.32.57,1.55,1.37.51,1.76,1.05,3.51,1.58,5.27.08,0,.16,0,.24,0Z"/>
        <path class="cls-1" d="M114.58,32.98c-2.84,2.01-5.56,1.9-7.49-.24-1.84-2.03-1.92-5.24-.19-7.28,1.96-2.32,4.55-2.5,7.68-.48v-5.2c.12.02.19.03.25.05.64.25,1.6-.29,1.92.27.32.54.1,1.4.1,2.13,0,3.57.02,7.15-.02,10.72,0,.46.46,1.32-.68,1.24-.79-.06-1.9.38-1.57-1.21ZM114.57,29.02c0-1.97-1.33-3.32-3.3-3.33-1.93-.01-3.36,1.39-3.37,3.3,0,1.9,1.4,3.31,3.32,3.34,1.92.03,3.34-1.37,3.34-3.31Z"/>
        <path class="cls-1" d="M58.31,32.86c-2.6,2.08-5.37,2.05-7.34.11-2.01-1.99-2.22-5.28-.46-7.45,1.92-2.36,4.56-2.56,7.65-.59.29-.32-.25-.98.36-1.1.58-.11,1.21-.1,1.79.01.39.07.2.55.2.84.01,2.77.01,5.54,0,8.3,0,.6.22,1.34-.88,1.21-.75-.09-1.78.29-1.33-1.34ZM58.23,29.05c.02-1.97-1.32-3.35-3.26-3.36-1.95-.02-3.36,1.33-3.39,3.26-.03,1.91,1.35,3.33,3.29,3.38,1.91.05,3.35-1.36,3.37-3.28Z"/>
        <path class="cls-1" d="M96.4,25.01c1.63-1.48,3.32-1.86,5.05-1.13,1.77.76,2.43,2.34,2.32,4.24-.04.64,0,1.28,0,1.93,0,.92,0,1.85,0,2.77,0,1.32-.58,1.71-1.9,1.37-.5-.13-.34-.47-.35-.75-.02-1.69,0-3.37,0-5.06,0-1.87-.68-2.7-2.25-2.76-1.62-.06-2.7.93-2.77,2.65-.07,1.56-.09,3.13,0,4.69.06,1-.22,1.29-1.24,1.25-.84-.03-1.07-.22-1.05-1.07.06-2.77.02-5.54.03-8.31,0-.5-.24-1.22.74-1.07.67.1,1.79-.47,1.44,1.23Z"/>
        <path class="cls-1" d="M124.54,34.44c-2.41,0-4.36-1.27-5.2-3.39-.87-2.21-.38-4.66,1.45-6.12,1.51-1.21,3.16-1.69,5.25-1.03,1.16.37,1.85,1.11,2.74,1.69.35.22.5.62-.09.91-.74.37-1.29.99-2.18-.01-1.11-1.24-3.27-.99-4.43.26-1.19,1.28-1.17,3.35.05,4.57,1.2,1.2,3.2,1.26,4.5.19.29-.24.4-.85.87-.69.53.19,1.02.54,1.48.88.35.26-.01.49-.16.68-1.08,1.39-2.53,2.05-4.28,2.05Z"/>
        <path class="cls-1" d="M134.87,34.43c-1.65.02-2.88-.29-3.81-1.3-.29-.31-1.07-.71-.5-1.17.53-.43,1.24-1.36,2.11-.32.31.37.71.61,1.15.8.67.29,2.06-.03,2.38-.64.33-.6.14-1.12-.47-1.39-.62-.27-1.28-.45-1.93-.65-2.5-.74-3.47-1.98-3-3.85.43-1.73,2.69-2.69,4.86-2.29,1.14.21,1.64,1.18,2.52,1.66.15.08.2.29.02.51-.47.58-1.61.75-2.16.28-.42-.35-.9-.54-1.44-.54-.72,0-1.44.17-1.59.99-.13.75.53,1,1.11,1.2.68.23,1.38.4,2.07.63,1.39.46,2.51,1.23,2.38,3.27-.08,1.33-1.06,2.34-2.72,2.7-.43.09-.88.09-1,.11Z"/>
        <path class="cls-1" d="M43.41,29.13c0-.48-.03-.97,0-1.45.07-1.05.13-1.94-1.45-1.76-.94.1-.38-.83-.47-1.28-.08-.38-.19-1.01.56-.86,1.44.3,1.42-.55,1.38-1.56-.05-1.23.38-1.62,1.64-1.72.56-.04.56.3.56.68,0,.68.04,1.37-.01,2.05-.05.65.18.87.81.79.28-.03.57.02.84-.01.71-.08,1.05.06,1.05.93,0,.88-.28,1.06-1.09,1.03-1.58-.06-1.59-.01-1.59,1.55,0,1.09-.02,2.17,0,3.26.02,1.17.5,1.63,1.65,1.7.4.02,1.01-.31,1.01.57,0,.63-.15.83-.82.98-2.66.6-4.05-.41-4.08-3.08,0-.6,0-1.21,0-1.81Z"/>
        <path class="cls-1" d="M68.11,26.56c0-2.25.06-4.5-.03-6.74-.04-1.04.58-.82,1.15-.82.58,0,1.16-.2,1.15.83-.06,4.54-.05,9.07,0,13.61.01,1.1-.71.7-1.21.74-.52.04-1.1.21-1.08-.75.07-2.29.02-4.58.02-6.86Z"/>
        <path class="cls-1" d="M63.23,28.85c0-1.44.05-2.89-.02-4.33-.05-1.11.71-.7,1.21-.73.52-.04,1.09-.21,1.07.75-.06,2.97-.06,5.93,0,8.9.02,1.1-.71.7-1.21.74-.52.04-1.13.22-1.08-.75.08-1.52.02-3.05.02-4.57Z"/>
        <path class="cls-1" d="M91.57,29.01c0,1.48-.05,2.97.02,4.45.05,1.13-.74.66-1.22.71-.51.05-1.1.23-1.08-.74.06-2.89.04-5.77.01-8.66-.01-1.19.8-.9,1.49-1,.94-.13.79.48.79,1.03,0,1.4,0,2.81,0,4.21Z"/>
        <path class="cls-1" d="M64.42,19.39c.55.18,1.27.43,1.28,1.25,0,.81-.32,1.56-1.35,1.54-.82-.02-1.34-.36-1.37-1.29-.03-.94.4-1.39,1.44-1.5Z"/>
        <path class="cls-1" d="M91.74,20.96c-.12.75-.53,1.23-1.37,1.21-.91-.03-1.39-.58-1.4-1.45-.02-1.2,1.05-1.21,1.75-1.19.54.02,1.21.54,1.02,1.44Z"/>
      </g>
    </g>
  </g>
</svg>